<?xml version="1.0" encoding="UTF-8" standalone="no"?>
<!-- Generator: IcoMoon.io -->

<svg xmlns:dc="http://purl.org/dc/elements/1.1/" xmlns:cc="http://creativecommons.org/ns#" xmlns:rdf="http://www.w3.org/1999/02/22-rdf-syntax-ns#" xmlns:svg="http://www.w3.org/2000/svg" xmlns="http://www.w3.org/2000/svg" xmlns:sodipodi="http://sodipodi.sourceforge.net/DTD/sodipodi-0.dtd" xmlns:inkscape="http://www.inkscape.org/namespaces/inkscape" version="1.1" id="Layer_1" x="0px" y="0px" width="64" height="64" viewBox="0 0 64 64" enable-background="new 0 0 16 16" xml:space="preserve" inkscape:version="0.48.2 r9819" sodipodi:docname="fullscreen.svg"><metadata id="metadata9"><rdf:RDF><cc:Work rdf:about=""><dc:format>image/svg+xml</dc:format><dc:type rdf:resource="http://purl.org/dc/dcmitype/StillImage" /><dc:title></dc:title></cc:Work></rdf:RDF></metadata><defs id="defs7" /><sodipodi:namedview pagecolor="#ffffff" bordercolor="#666666" borderopacity="1" objecttolerance="10" gridtolerance="10" guidetolerance="10" inkscape:pageopacity="0" inkscape:pageshadow="2" inkscape:window-width="1128" inkscape:window-height="671" id="namedview5" showgrid="false" inkscape:zoom="8.6706473" inkscape:cx="27.49464" inkscape:cy="28.712616" inkscape:window-x="0" inkscape:window-y="0" inkscape:window-maximized="0" inkscape:current-layer="Layer_1" /> <path id="path2992" style="fill:#ffffff;fill-opacity:1" d="m 40.268819,26.730728 c -0.827315,0 -1.578262,-0.335169 -2.12132,-0.878227 -0.543058,-0.543057 -0.878227,-1.294005 -0.878227,-2.12132 l 0,-8.485281 c 0,-1.213395 0.733977,-2.307997 1.854034,-2.774687 1.117936,-0.464569 2.411941,-0.205768 3.268955,0.651245 l 2.12132,2.121321 6.363961,-6.3639609 c 1.17309,-1.173091 3.069551,-1.173091 4.24264,-10e-7 1.17309,1.1730899 1.17309,3.0695509 0,4.2426409 l -6.36396,6.363961 2.12132,2.12132 c 0.857013,0.857014 1.115814,2.151019 0.651245,3.268955 -0.468812,1.122178 -1.563413,1.851913 -2.774687,1.854034 l -8.485281,0 z M 23.731181,37.269272 c 0.827315,0 1.578262,0.335168 2.12132,0.878226 0.543058,0.543058 0.878227,1.294006 0.878227,2.121321 l 0,8.485281 c 0,1.213395 -0.733977,2.307997 -1.854034,2.774687 -1.117936,0.464569 -2.411941,0.205768 -3.268955,-0.651245 l -2.12132,-2.121321 -6.363961,6.36396 c -1.17309,1.173091 -3.069551,1.173091 -4.2426407,0 -1.17309,-1.173089 -1.17309,-3.069549 0,-4.242639 l 6.3639607,-6.363961 -2.12132,-2.121321 c -0.857013,-0.857013 -1.115815,-2.151018 -0.651245,-3.268954 0.468811,-1.122179 1.563413,-1.851913 2.774687,-1.854034 l 8.485281,0 z" /></svg>