<?xml version="1.0" encoding="UTF-8" standalone="no"?>
<!-- Created with Inkscape (http://www.inkscape.org/) -->

<svg xmlns:dc="http://purl.org/dc/elements/1.1/" xmlns:cc="http://creativecommons.org/ns#" xmlns:rdf="http://www.w3.org/1999/02/22-rdf-syntax-ns#" xmlns:svg="http://www.w3.org/2000/svg" xmlns="http://www.w3.org/2000/svg" xmlns:sodipodi="http://sodipodi.sourceforge.net/DTD/sodipodi-0.dtd" xmlns:inkscape="http://www.inkscape.org/namespaces/inkscape" version="1.1" width="64" height="64" viewBox="0 0 64 64" id="Layer_1" xml:space="preserve" style="fill:#000000" inkscape:version="0.48.2 r9819" sodipodi:docname="fit.svg"><sodipodi:namedview pagecolor="#ffffff" bordercolor="#666666" borderopacity="1" objecttolerance="10" gridtolerance="10" guidetolerance="10" inkscape:pageopacity="0" inkscape:pageshadow="2" inkscape:window-width="1203" inkscape:window-height="625" id="namedview10" showgrid="false" inkscape:zoom="5.9544183" inkscape:cx="23.304622" inkscape:cy="30.717701" inkscape:window-x="0" inkscape:window-y="0" inkscape:window-maximized="0" inkscape:current-layer="Layer_1" /><metadata id="metadata9"><rdf:RDF><cc:Work rdf:about=""><dc:format>image/svg+xml</dc:format><dc:type rdf:resource="http://purl.org/dc/dcmitype/StillImage" /><dc:title /></cc:Work></rdf:RDF></metadata><defs id="defs7" /> <path style="font-size:medium;font-style:normal;font-variant:normal;font-weight:normal;font-stretch:normal;text-indent:0;text-align:start;text-decoration:none;line-height:normal;letter-spacing:normal;word-spacing:normal;text-transform:none;direction:ltr;block-progression:tb;writing-mode:lr-tb;text-anchor:start;baseline-shift:baseline;color:#000000;fill:#000000;fill-opacity:1;stroke:none;stroke-width:4;marker:none;visibility:visible;display:inline;overflow:visible;enable-background:accumulate;font-family:Sans;-inkscape-font-specification:Sans" d="M 9.8125,8.0009991 A 2.0002,2.0002 0 0 0 8,10.000999 l 0,8 a 2.0002,2.0002 0 1 0 4,0 l 0,-6 6,0 a 2.0002,2.0002 0 1 0 0,-3.9999999 l -8,0 a 2.0002,2.0002 0 0 0 -0.1875,0 z m 36,0 A 2.0021961,2.0021961 0 1 0 46,12.000999 l 6,0 0,6 a 2.0002,2.0002 0 1 0 4,0 l 0,-8 A 2.0002,2.0002 0 0 0 54,8.0009991 l -8,0 a 2.0002,2.0002 0 0 0 -0.1875,0 z m -28,7.9999999 a 2.0002,2.0002 0 0 0 -1.8125,2 l 0,28 a 2.0002,2.0002 0 0 0 2,2 l 28,0 a 2.0002,2.0002 0 0 0 2,-2 l 0,-28 a 2.0002,2.0002 0 0 0 -2,-2 l -28,0 a 2.0002,2.0002 0 0 0 -0.1875,0 z m 2.1875,4 24,0 0,24 -24,0 0,-24 z M 9.96875,43.969749 A 2.0002,2.0002 0 0 0 8,46.000999 l 0,8 a 2.0002,2.0002 0 0 0 2,2 l 8,0 a 2.0002,2.0002 0 1 0 0,-4 l -6,0 0,-6 a 2.0002,2.0002 0 0 0 -2.03125,-2.03125 z m 44,0 A 2.0002,2.0002 0 0 0 52,46.000999 l 0,6 -6,0 a 2.0002,2.0002 0 1 0 0,4 l 8,0 a 2.0002,2.0002 0 0 0 2,-2 l 0,-8 a 2.0002,2.0002 0 0 0 -2.03125,-2.03125 z" id="path3760" inkscape:connector-curvature="0" /></svg>