<?xml version="1.0" encoding="UTF-8" standalone="no"?>
<!-- Generator: IcoMoon.io -->

<svg xmlns:dc="http://purl.org/dc/elements/1.1/" xmlns:cc="http://creativecommons.org/ns#" xmlns:rdf="http://www.w3.org/1999/02/22-rdf-syntax-ns#" xmlns:svg="http://www.w3.org/2000/svg" xmlns="http://www.w3.org/2000/svg" xmlns:sodipodi="http://sodipodi.sourceforge.net/DTD/sodipodi-0.dtd" xmlns:inkscape="http://www.inkscape.org/namespaces/inkscape" version="1.1" id="Layer_1" x="0px" y="0px" width="64" height="64" viewBox="0 0 64 64" enable-background="new 0 0 16 16" xml:space="preserve" inkscape:version="0.48.2 r9819" sodipodi:docname="fullscreen.svg"><metadata id="metadata9"><rdf:RDF><cc:Work rdf:about=""><dc:format>image/svg+xml</dc:format><dc:type rdf:resource="http://purl.org/dc/dcmitype/StillImage" /><dc:title></dc:title></cc:Work></rdf:RDF></metadata><defs id="defs7" /><sodipodi:namedview pagecolor="#ffffff" bordercolor="#666666" borderopacity="1" objecttolerance="10" gridtolerance="10" guidetolerance="10" inkscape:pageopacity="0" inkscape:pageshadow="2" inkscape:window-width="1128" inkscape:window-height="671" id="namedview5" showgrid="false" inkscape:zoom="8.6706473" inkscape:cx="27.49464" inkscape:cy="28.712616" inkscape:window-x="0" inkscape:window-y="0" inkscape:window-maximized="0" inkscape:current-layer="Layer_1" /> <path id="path2992" style="fill:#ffffff;fill-opacity:1" d="M 10.999547,56 C 10.172232,56 9.4212847,55.664832 8.8782267,55.121774 8.3351687,54.578716 8,53.827768 8,53.000453 L 8,44.515172 C 8,43.301777 8.7339768,42.207175 9.8540339,41.740485 10.97197,41.275916 12.265975,41.534717 13.122989,42.39173 l 2.12132,2.121321 6.363961,-6.363961 c 1.17309,-1.173091 3.069551,-1.173091 4.242641,0 1.17309,1.17309 1.17309,3.06955 0,4.24264 l -6.363961,6.363961 2.12132,2.121321 c 0.857013,0.857013 1.115815,2.151018 0.651245,3.268954 C 21.790704,55.268145 20.696102,55.997879 19.484828,56 l -8.485281,0 z M 53.000453,8 c 0.827315,0 1.578262,0.335169 2.12132,0.878227 C 55.664831,9.421284 56,10.172232 56,10.999547 l 0,8.485281 c 0,1.213395 -0.733977,2.307997 -1.854034,2.774687 -1.117936,0.464569 -2.411941,0.205768 -3.268955,-0.651245 l -2.12132,-2.121321 -6.363961,6.363961 c -1.17309,1.173091 -3.069551,1.173091 -4.242641,1e-6 -1.17309,-1.17309 -1.17309,-3.069551 0,-4.242641 l 6.363961,-6.363961 -2.12132,-2.12132 C 41.534717,12.265975 41.275916,10.97197 41.740485,9.854034 42.209297,8.731856 43.303898,8.002121 44.515172,8 l 8.485281,0 z" inkscape:connector-curvature="0" /></svg>