<?xml version="1.0" encoding="UTF-8" standalone="no"?>
<!-- Created with Inkscape (http://www.inkscape.org/) -->

<svg xmlns:dc="http://purl.org/dc/elements/1.1/" xmlns:cc="http://creativecommons.org/ns#" xmlns:rdf="http://www.w3.org/1999/02/22-rdf-syntax-ns#" xmlns:svg="http://www.w3.org/2000/svg" xmlns="http://www.w3.org/2000/svg" version="1.1" width="64" height="64" viewBox="0 0 64 64" id="Layer_1" xml:space="preserve" style="fill:#000000"><metadata id="metadata9"><rdf:RDF><cc:Work rdf:about=""><dc:format>image/svg+xml</dc:format><dc:type rdf:resource="http://purl.org/dc/dcmitype/StillImage" /><dc:title></dc:title></cc:Work></rdf:RDF></metadata><defs id="defs7" /> <path d="m 53,29 -3,0 c -0.105,0 -0.192,0.051 -0.297,0.06 -0.456,-2.769 -1.527,-5.316 -3.093,-7.506 0.075,-0.063 0.168,-0.087 0.24,-0.159 l 2.121,-2.121 c 1.173,-1.173 1.173,-3.069 0,-4.242 -1.173,-1.173 -3.072,-1.173 -4.245,0 l -2.121,2.118 c -0.069,0.069 -0.096,0.165 -0.159,0.24 C 40.259,15.821 37.709,14.753 34.94,14.297 34.949,14.192 35,14.105 35,14 l 0,-3 C 35,9.344 33.659,8 32,8 30.341,8 29,9.344 29,11 l 0,3 c 0,0.105 0.051,0.192 0.06,0.297 -2.769,0.456 -5.319,1.524 -7.506,3.093 -0.063,-0.075 -0.09,-0.168 -0.159,-0.24 l -2.121,-2.121 c -1.173,-1.173 -3.072,-1.173 -4.245,0 -1.17,1.173 -1.17,3.069 0,4.242 l 2.124,2.121 c 0.069,0.072 0.159,0.099 0.237,0.162 -1.569,2.19 -2.637,4.737 -3.093,7.506 C 14.192,29.051 14.105,29 14,29 l -3,0 c -1.659,0 -3,1.344 -3,3 0,1.656 1.341,3 3,3 l 3,0 c 0.105,0 0.192,-0.048 0.297,-0.06 0.456,2.769 1.527,5.316 3.093,7.506 -0.075,0.063 -0.168,0.087 -0.237,0.159 l -2.124,2.121 c -1.17,1.173 -1.17,3.072 0,4.242 1.173,1.173 3.072,1.173 4.245,0 l 2.121,-2.121 c 0.069,-0.069 0.096,-0.165 0.159,-0.24 2.187,1.569 4.737,2.637 7.506,3.096 C 29.051,49.808 29,49.895 29,50 l 0,3 c 0,1.659 1.341,3 3,3 1.659,0 3,-1.341 3,-3 l 0,-3 c 0,-0.105 -0.051,-0.192 -0.06,-0.297 2.769,-0.459 5.316,-1.527 7.506,-3.096 0.063,0.075 0.087,0.171 0.159,0.24 l 2.121,2.121 c 1.173,1.173 3.072,1.173 4.245,0 1.173,-1.17 1.173,-3.069 0,-4.242 L 46.85,42.605 c -0.072,-0.069 -0.165,-0.093 -0.24,-0.159 1.566,-2.19 2.637,-4.737 3.093,-7.506 C 49.808,34.952 49.895,35 50,35 l 3,0 c 1.659,0 3,-1.344 3,-3 0,-1.656 -1.341,-3 -3,-3 z M 32,41 c -4.971,0 -9,-4.032 -9,-9 0,-4.971 4.029,-9 9,-9 4.971,0 9,4.029 9,9 0,4.968 -4.029,9 -9,9 z" id="path3" /></svg>