<?xml version="1.0" encoding="UTF-8" standalone="no"?>
<!-- Created with Inkscape (http://www.inkscape.org/) -->

<svg xmlns:dc="http://purl.org/dc/elements/1.1/" xmlns:cc="http://creativecommons.org/ns#" xmlns:rdf="http://www.w3.org/1999/02/22-rdf-syntax-ns#" xmlns:svg="http://www.w3.org/2000/svg" xmlns="http://www.w3.org/2000/svg" version="1.1" width="64" height="64" viewBox="0 0 64 64" id="Layer_1" xml:space="preserve" style="fill:#000000"><metadata id="metadata9"><rdf:RDF><cc:Work rdf:about=""><dc:format>image/svg+xml</dc:format><dc:type rdf:resource="http://purl.org/dc/dcmitype/StillImage" /><dc:title></dc:title></cc:Work></rdf:RDF></metadata><defs id="defs7" /> <path d="m 47.000002,56 -30.000004,0 c -4.971,0 -9,-4.032 -9,-9 l 0,-30 c 0,-4.971 4.029,-9 9,-9 l 30.000004,0 c 4.971,0 9,4.029 9,9 l 0,30 c 0,4.968 -4.029,9 -9,9 z m 3,-39 c 0,-1.656 -1.341,-3 -3,-3 l -30.000004,0 c -1.659,0 -3,1.344 -3,3 l 0,30 c 0,1.659 1.341,3 3,3 l 30.000004,0 c 1.659,0 3,-1.341 3,-3 l 0,-30 z m -9,18 -6.000004,0 0,6 c 0,1.659 -1.341,3 -3,3 -1.659,0 -3,-1.341 -3,-3 l 0,-6 -6,0 c -1.659,0 -3,-1.344 -3,-3 0,-1.656 1.341,-3 3,-3 l 6,0 0,-6 c 0,-1.656 1.341,-3 3,-3 1.659,0 3,1.344 3,3 l 0,6 6.000004,0 c 1.659,0 3,1.344 3,3 0,1.656 -1.341,3 -3,3 z" id="path3" /></svg>