<?xml version="1.0" encoding="UTF-8" standalone="no"?>
<svg xmlns:dc="http://purl.org/dc/elements/1.1/" xmlns:cc="http://creativecommons.org/ns#" xmlns:rdf="http://www.w3.org/1999/02/22-rdf-syntax-ns#" xmlns:svg="http://www.w3.org/2000/svg" xmlns="http://www.w3.org/2000/svg" xmlns:sodipodi="http://sodipodi.sourceforge.net/DTD/sodipodi-0.dtd" xmlns:inkscape="http://www.inkscape.org/namespaces/inkscape" version="1.1" id="Your_Icon" x="0px" y="0px" width="64" height="64" viewBox="0 0 64 64" xml:space="preserve" inkscape:version="0.48.2 r9819" sodipodi:docname="icon_17684.svg" inkscape:export-filename="/Users/Tyler/Desktop/globe.png" inkscape:export-xdpi="720" inkscape:export-ydpi="720"><metadata id="metadata15"><rdf:RDF><cc:Work rdf:about=""><dc:format>image/svg+xml</dc:format><dc:type rdf:resource="http://purl.org/dc/dcmitype/StillImage" /><dc:title></dc:title></cc:Work></rdf:RDF></metadata><defs id="defs13" /><sodipodi:namedview pagecolor="#ffffff" bordercolor="#666666" borderopacity="1" objecttolerance="10" gridtolerance="10" guidetolerance="10" inkscape:pageopacity="0" inkscape:pageshadow="2" inkscape:window-width="1075" inkscape:window-height="643" id="namedview11" showgrid="false" inkscape:zoom="0.25" inkscape:cx="32" inkscape:cy="50" inkscape:window-x="0" inkscape:window-y="0" inkscape:window-maximized="0" inkscape:current-layer="Your_Icon" />
<g id="g3" transform="matrix(0.48032662,0,0,0.48000478,8.0000001,8.000481)">
	
	
	
</g>
<path id="path2992" style="font-size:medium;font-style:normal;font-variant:normal;font-weight:normal;font-stretch:normal;text-indent:0;text-align:start;text-decoration:none;line-height:normal;letter-spacing:normal;word-spacing:normal;text-transform:none;direction:ltr;block-progression:tb;writing-mode:lr-tb;text-anchor:start;baseline-shift:baseline;color:#000000;fill:#000000;fill-opacity:1;stroke:none;stroke-width:4.34919548;marker:none;visibility:visible;display:inline;overflow:visible;enable-background:accumulate;font-family:Sans;-inkscape-font-specification:Sans" d="m 32.011674,-0.08099426 c -17.521577,0 -31.94195203,14.27623926 -31.94195203,32.07065826 0,17.794419 14.42037503,32.100631 31.94195203,32.100631 17.521577,0 31.914392,-14.306212 31.914392,-32.100631 0,-17.794419 -14.392815,-32.07065826 -31.914392,-32.07065826 z m 0,4.16618836 c 15.615508,0 28.083563,12.5618039 28.083563,27.9044699 0,15.342666 -12.468055,27.934443 -28.083563,27.934443 -15.615509,0 -28.0835627,-12.591777 -28.0835627,-27.934443 0,-15.342666 12.4680537,-27.9044699 28.0835627,-27.9044699 z M 46.626906,26.139382 c -0.156586,-0.730088 -0.322299,-1.450095 -0.5005,-2.154742 -0.247368,-0.349923 -0.5005,-0.698407 -0.753633,-1.04401 0.247369,-0.0936 0.497138,-0.187682 0.741144,-0.277923 -0.03746,-0.325443 -0.08118,-0.648486 -0.122003,-0.96433 -0.612416,0.311044 -1.244526,0.634087 -1.901132,0.97009 0.30981,0.631206 0.612896,1.278253 0.909738,1.932979 -0.07445,0.431045 -0.152744,0.870249 -0.237281,1.313773 0.634511,0.0744 1.256534,0.149282 1.863667,0.224163 z m 9.121403,5.510935 c -0.572069,0.696966 -1.244527,1.434254 -1.997679,2.203221 -0.01249,0.464165 -0.02834,0.92977 -0.04755,1.392494 -0.284353,0.398404 -0.577833,0.801608 -0.887644,1.206252 -0.29444,-1.201452 -0.629227,-2.453304 -1.013489,-3.730117 -0.431333,-0.678247 -0.891006,-1.371853 -1.375655,-2.07506 -1.135012,-0.281283 -2.364168,-0.570246 -3.66153,-0.865449 -0.385222,-0.365764 -0.77909,-0.732487 -1.179202,-1.103531 -0.19117,0.115681 -0.38186,0.229922 -0.572069,0.347523 0.300204,0.731048 0.593684,1.462095 0.875155,2.193142 0.44094,-0.239042 0.872273,-0.478085 1.291598,-0.710407 0.569188,0.485765 1.119642,0.96865 1.648001,1.440494 -1.560581,1.092011 -3.283513,2.238743 -5.100108,3.396994 -0.863147,-1.895539 -1.813233,-3.869318 -2.811832,-5.831098 -0.20654,0.03264 -0.412601,0.06768 -0.619141,0.100321 1.02934,2.335223 2.01401,4.690127 2.870912,6.925029 0.944803,-0.475205 1.86703,-0.949929 2.758036,-1.420334 -0.306449,1.056011 -0.634512,2.109621 -0.978426,3.138751 -0.94144,0.881289 -1.913621,1.752978 -2.895409,2.603066 0.04707,1.197132 0.07157,2.337624 0.06917,3.393634 -0.547573,0.374884 -1.091783,0.735847 -1.635993,1.089131 -1.115799,1.498575 -2.22007,2.797468 -3.267662,3.796838 -0.878517,0.115681 -1.753672,0.220322 -2.624024,0.318723 -0.653244,-1.02145 -1.42609,-2.418744 -2.270024,-4.078121 0.199816,-0.758887 0.41212,-1.571535 0.628267,-2.427864 -0.531241,-1.495215 -1.093703,-3.123871 -1.664812,-4.824048 -1.905936,0.117121 -3.799383,0.218882 -5.644318,0.301923 -1.065845,-1.00657 -2.122563,-2.0309 -3.151903,-3.05907 0.134011,-1.650257 0.304047,-3.337954 0.500981,-5.01269 1.00052,-1.248493 2.035624,-2.500345 3.077452,-3.730117 1.965497,-0.363844 3.973262,-0.716648 5.966617,-1.048331 0.125366,0.510725 0.250251,1.02961 0.375136,1.550896 0.819437,0.523685 1.641756,1.05457 2.464075,1.589295 0.313173,-0.437284 0.622984,-0.869768 0.928952,-1.298413 1.247888,0.322084 2.483288,0.649927 3.699475,0.97825 0.309331,-0.186242 0.619141,-0.373444 0.922228,-0.557765 0.125365,-0.456005 0.243525,-0.908169 0.363607,-1.354574 -0.826162,-0.154561 -1.66097,-0.307683 -2.505384,-0.460804 -0.284353,-0.465605 -0.572069,-0.92977 -0.856422,-1.387694 -0.203659,-0.09648 -0.403475,-0.194882 -0.603771,-0.293283 -0.156586,0.565445 -0.316055,1.143851 -0.481767,1.729937 -0.384262,-0.470405 -0.769003,-0.934569 -1.153265,-1.392014 0.01873,-0.383044 0.03747,-0.759367 0.05284,-1.131371 -0.503382,-0.377764 -1.007245,-0.750248 -1.504383,-1.112651 -0.297322,-0.138722 -0.594164,-0.274563 -0.891006,-0.409444 0.02834,0.357603 0.05284,0.721927 0.08118,1.089611 0.622503,0.393603 1.25077,0.795368 1.8824,1.204812 -0.318937,0.351363 -0.640756,0.710887 -0.966417,1.07329 -0.459673,-0.584646 -0.915983,-1.157771 -1.363167,-1.720337 -0.325182,-0.351363 -0.645559,-0.697447 -0.963055,-1.03777 -0.745947,0.343683 -1.497659,0.696967 -2.248409,1.05649 -0.538446,0.774728 -1.084097,1.574896 -1.626386,2.388984 -0.797342,-0.113761 -1.584117,-0.221762 -2.361766,-0.326403 -0.01249,-0.96577 -0.01393,-1.909459 -0.0062,-2.814268 0.978905,0.04032 1.97126,0.08592 2.977064,0.139201 -0.301645,-0.476645 -0.597526,-0.942249 -0.888124,-1.393454 -0.171476,-0.370083 -0.340551,-0.731047 -0.506744,-1.08289 0.75027,-0.229923 1.50102,-0.454565 2.248889,-0.670087 0.425569,-0.476645 0.844414,-0.936009 1.257015,-1.374734 0.328543,-0.02208 0.658047,-0.04368 0.985149,-0.06576 -0.06436,-0.243843 -0.128247,-0.484325 -0.19213,-0.715688 0.214225,-0.216962 0.423648,-0.426724 0.631629,-0.632646 0.154185,0.340804 0.313654,0.695527 0.473122,1.066091 0.910219,0.0168 1.82332,0.04224 2.730657,0.07296 0.231037,-0.516965 0.450546,-1.00465 0.662851,-1.461134 0.343913,0.08736 0.687827,0.180002 1.034623,0.270243 -0.143618,-0.324004 -0.287716,-0.631207 -0.428451,-0.92545 0.5005,-0.103201 0.990433,-0.201602 1.478925,-0.295203 -0.178201,-0.130081 -0.35304,-0.257762 -0.528839,-0.379683 -0.437578,0.07008 -0.878518,0.145441 -1.328584,0.221762 -0.187807,-0.260643 -0.375135,-0.505925 -0.556698,-0.738727 -0.02498,-0.0014 -0.04707,-0.0034 -0.07157,-0.0034 0.0096,-0.0168 0.01873,-0.03264 0.02834,-0.05136 -0.07493,-0.09648 -0.153224,-0.190082 -0.229115,-0.279363 0.169555,-0.06912 0.33815,-0.135841 0.50098,-0.200162 0.131129,-0.223202 0.240644,-0.390244 0.359285,-0.573126 -0.165713,-0.01248 -0.330945,-0.02688 -0.493296,-0.03888 -0.231517,0.142082 -0.472641,0.300003 -0.720009,0.469925 -0.196934,0.256322 -0.403475,0.543845 -0.619141,0.854408 0.268982,0.174722 0.540847,0.354244 0.816555,0.545286 -0.225754,0.456004 -0.463515,0.960969 -0.713285,1.505295 -0.406837,0.115681 -0.816075,0.232802 -1.229156,0.356163 -0.23488,-0.564485 -0.465917,-1.089611 -0.684946,-1.569615 -0.463995,0.181441 -0.939519,0.367683 -1.416003,0.564485 -0.223832,-0.09552 -0.440939,-0.186242 -0.658527,-0.278403 0.04995,-0.479524 0.101829,-0.920169 0.156586,-1.311853 0.398671,-0.184321 0.789657,-0.352803 1.172477,-0.510725 0.329985,-0.417124 0.642197,-0.764167 0.932314,-1.03105 0.741625,-0.151201 1.451067,-0.273123 2.129769,-0.373444 1.720529,0.07824 3.518392,0.203522 5.337869,0.356164 2.521235,-0.08592 5.578994,-0.193442 6.927271,-0.259203 C 42.76508,9.9344203 37.620782,8.000001 32.016811,8.000001 c -5.715886,0 -10.959612,2.00306 -15.082736,5.336213 0.275708,0.03888 0.550455,0.08112 0.829524,0.120001 0.164272,0.409924 0.351599,0.854889 0.570628,1.351694 0.07013,0.254402 0.148902,0.524645 0.2344,0.805928 -0.436137,0.417124 -0.863147,0.865928 -1.283433,1.342093 -0.0879,0.234723 -0.171957,0.473765 -0.253132,0.720967 -0.317976,0.179522 -0.629228,0.362404 -0.938558,0.548646 -0.201738,0.668646 -0.388104,1.377614 -0.560542,2.113461 -0.380899,-0.05616 -0.752671,-0.108001 -1.115318,-0.157442 -0.253132,-1.464014 -0.402033,-2.724987 -0.517312,-3.905319 -1.114838,1.283533 -2.109594,2.672187 -2.934795,4.172202 0.122483,-0.101761 0.237761,-0.203522 0.363127,-0.304803 0.320377,1.620016 0.709922,3.396994 1.231557,5.334293 -1.053356,0.677767 -2.001521,1.351214 -2.8175959,2.00306 -0.5941641,0.550085 -1.1071529,1.089131 -1.5480927,1.606096 -0.1167194,0.95713 -0.1945323,1.925299 -0.1945323,2.913149 0,2.04674 0.2843534,4.02532 0.766121,5.921819 0.4255693,0.154562 0.8910058,0.306243 1.4059159,0.457925 0.783413,0.896648 1.680663,1.806258 2.665813,2.706746 0.215666,0.643687 0.444302,1.276333 0.683505,1.895059 1.279109,0.798248 2.67734,1.568656 4.13273,2.291543 -0.44094,1.364174 -0.77861,2.550266 -1.032702,3.573636 -0.565345,0.01536 -1.115799,0.02832 -1.66097,0.0408 4.351279,4.390124 10.383221,7.112231 17.057359,7.112231 13.039907,0 23.628227,-10.394024 23.982228,-23.340712 -0.0855,-0.336964 -0.157547,-0.665287 -0.251691,-1.00897 z M 25.669775,16.171602 c 0.375136,-0.287522 0.74979,-0.559205 1.11676,-0.814088 0.01393,-0.189122 0.03122,-0.370083 0.04995,-0.543365 0.364568,-0.144002 0.725773,-0.281283 1.083617,-0.409444 0.429892,0.566885 0.921266,1.268652 1.458752,2.085621 -0.170036,0.176641 -0.342473,0.357603 -0.51395,0.545285 -0.580715,0.195842 -1.166713,0.402244 -1.752712,0.612966 0.06869,-0.636486 0.143618,-1.224012 0.223352,-1.756817 -0.225753,0.360963 -0.454869,0.745447 -0.687828,1.152011 -0.400592,0.012 -0.803586,0.02832 -1.199855,0.04368 0.07205,-0.320163 0.145539,-0.624966 0.22191,-0.915849 z m 17.61742,30.808147 c -0.30981,-0.09456 -0.625385,-0.192002 -0.944322,-0.291843 0.162831,-0.687847 0.312693,-1.437614 0.450546,-2.229622 0.656607,-0.451684 1.312733,-0.915849 1.960213,-1.392014 0.03122,0.410404 0.0562,0.809288 0.07493,1.200012 -0.50002,0.97441 -1.01589,1.886899 -1.541368,2.713467 z m -2.67686,-22.828067 c 0.531722,0.154561 1.063443,0.312483 1.586038,0.471845 0.19021,-0.342244 0.375136,-0.681607 0.556219,-1.014251 -1.250771,-0.666246 -2.526999,-1.318573 -3.803226,-1.945459 -0.33767,0.600006 -0.693592,1.221612 -1.052876,1.862899 0.184445,0.302883 0.36889,0.610566 0.553336,0.920169 0.731537,-0.101281 1.450106,-0.201122 2.160509,-0.295203 z" /></svg>