<?xml version="1.0" encoding="UTF-8" standalone="no"?>
<!-- Created with Inkscape (http://www.inkscape.org/) -->

<svg xmlns:dc="http://purl.org/dc/elements/1.1/" xmlns:cc="http://creativecommons.org/ns#" xmlns:rdf="http://www.w3.org/1999/02/22-rdf-syntax-ns#" xmlns:svg="http://www.w3.org/2000/svg" xmlns="http://www.w3.org/2000/svg" xmlns:sodipodi="http://sodipodi.sourceforge.net/DTD/sodipodi-0.dtd" xmlns:inkscape="http://www.inkscape.org/namespaces/inkscape" version="1.1" width="64" height="64" viewBox="0 0 64 64" id="Layer_1" xml:space="preserve" style="fill:#000000" inkscape:version="0.48.2 r9819" sodipodi:docname="fit.svg"><sodipodi:namedview pagecolor="#ffffff" bordercolor="#666666" borderopacity="1" objecttolerance="10" gridtolerance="10" guidetolerance="10" inkscape:pageopacity="0" inkscape:pageshadow="2" inkscape:window-width="916" inkscape:window-height="567" id="namedview10" showgrid="false" inkscape:zoom="10.675622" inkscape:cx="5.4360555" inkscape:cy="24" inkscape:window-x="0" inkscape:window-y="0" inkscape:window-maximized="0" inkscape:current-layer="Layer_1" /><metadata id="metadata9"><rdf:RDF><cc:Work rdf:about=""><dc:format>image/svg+xml</dc:format><dc:type rdf:resource="http://purl.org/dc/dcmitype/StillImage" /><dc:title /></cc:Work></rdf:RDF></metadata><defs id="defs7" /> <path id="path3764" style="font-size:medium;font-style:normal;font-variant:normal;font-weight:normal;font-stretch:normal;text-indent:0;text-align:start;text-decoration:none;line-height:normal;letter-spacing:normal;word-spacing:normal;text-transform:none;direction:ltr;block-progression:tb;writing-mode:lr-tb;text-anchor:start;baseline-shift:baseline;color:#000000;fill:#000000;fill-opacity:1;stroke:none;stroke-width:2.99999976;marker:none;visibility:visible;display:inline;overflow:visible;enable-background:accumulate;font-family:Sans;-inkscape-font-specification:Sans" d="m 19.843966,18.503115 a 1.5001231,1.5000133 0 0 0 -1.343726,1.499863 l 0,23.997814 a 1.5001231,1.5000133 0 0 0 1.499974,1.499865 l 23.999571,0 a 1.5001231,1.5000133 0 0 0 1.499973,-1.499865 l 0,-23.997814 a 1.5001231,1.5000133 0 0 0 -1.499973,-1.499863 l -23.999571,0 a 1.5001231,1.5000133 0 0 0 -0.156248,0 z m 1.656221,2.999727 20.999625,0 0,20.998087 -20.999625,0 0,-20.998087 z M 10.68788,8.004071 a 3.0002464,3.0000268 0 0 0 -2.6874519,2.999727 l 0,8.99918 a 3.0002464,3.0000268 0 1 0 5.9998929,0 l 0,-5.999453 5.999893,0 a 3.0002464,3.0000268 0 1 0 0,-5.999454 l -8.99984,0 a 3.0002464,3.0000268 0 0 0 -0.312494,0 z m 41.968,32.965747 a 3.0002464,3.0000268 0 0 0 -2.656202,3.030974 l 0,5.999454 -5.999893,0 a 3.0002464,3.0000268 0 1 0 0,5.999454 l 8.999839,0 a 3.0002464,3.0000268 0 0 0 2.999947,-2.999726 l 0,-8.999182 A 3.0002464,3.0000268 0 0 0 52.65588,40.969818 z M 43.687291,8.004071 a 3.0040128,3.0037929 0 1 0 0.312494,5.999454 l 5.999893,0 0,5.999453 a 3.0002464,3.0000268 0 1 0 5.999893,0 l 0,-8.99918 A 3.0002464,3.0000268 0 0 0 52.999624,8.004071 l -8.999839,0 a 3.0002464,3.0000268 0 0 0 -0.312494,0 z m -33.03066,32.965747 a 3.0002464,3.0000268 0 0 0 -2.6562029,3.030974 l 0,8.999182 A 3.0002464,3.0000268 0 0 0 11.000374,55.9997 l 8.99984,0 a 3.0002464,3.0000268 0 1 0 0,-5.999454 l -5.999893,0 0,-5.999454 a 3.0002464,3.0000268 0 0 0 -3.34369,-3.030974 z" inkscape:connector-curvature="0" /></svg>