<?xml version="1.0" encoding="UTF-8" standalone="no"?>
<!-- Created with Inkscape (http://www.inkscape.org/) -->

<svg xmlns:dc="http://purl.org/dc/elements/1.1/" xmlns:cc="http://creativecommons.org/ns#" xmlns:rdf="http://www.w3.org/1999/02/22-rdf-syntax-ns#" xmlns:svg="http://www.w3.org/2000/svg" xmlns="http://www.w3.org/2000/svg" version="1.1" width="64" height="64" viewBox="0 0 64 64" id="Layer_1" xml:space="preserve" style="fill:#000000"><metadata id="metadata9"><rdf:RDF><cc:Work rdf:about=""><dc:format>image/svg+xml</dc:format><dc:type rdf:resource="http://purl.org/dc/dcmitype/StillImage" /><dc:title></dc:title></cc:Work></rdf:RDF></metadata><defs id="defs7" /> <path d="m 34.304903,28.005746 a 1.50015,1.50015 0 0 0 -0.875,0.4375 l -5,5 a 1.5026019,1.5026019 0 1 0 2.125,2.125 l 5,-5 a 1.50015,1.50015 0 0 0 -1.25,-2.5625 z m 14,-14 a 1.50015,1.50015 0 0 0 -0.875,0.4375 l -5,5 a 1.5026019,1.5026019 0 1 0 2.125,2.125 l 5,-5 a 1.50015,1.50015 0 0 0 -1.25,-2.5625 z m -28,28 a 1.50015,1.50015 0 0 0 -0.875,0.4375 l -5,5 a 1.5026019,1.5026019 0 1 0 2.125,2.125 l 5,-5 a 1.50015,1.50015 0 0 0 -1.25,-2.5625 z m 22,-34.0000007 a 1.50015,1.50015 0 0 0 -0.875,0.4375 L 8.4299031,41.443246 a 1.5026019,1.5026019 0 1 0 2.1249999,2.125 l 33,-33 a 1.50015,1.50015 0 0 0 -1.25,-2.5625007 z m 12,12.0000007 a 1.50015,1.50015 0 0 0 -0.875,0.4375 l -33,33 a 1.5026019,1.5026019 0 1 0 2.125,2.125 l 33,-33 a 1.50015,1.50015 0 0 0 -1.25,-2.5625 z" id="path3764" style="font-size:medium;font-style:normal;font-variant:normal;font-weight:normal;font-stretch:normal;text-indent:0;text-align:start;text-decoration:none;line-height:normal;letter-spacing:normal;word-spacing:normal;text-transform:none;direction:ltr;block-progression:tb;writing-mode:lr-tb;text-anchor:start;baseline-shift:baseline;color:#000000;fill:#000000;fill-opacity:1;stroke:none;stroke-width:3;marker:none;visibility:visible;display:inline;overflow:visible;enable-background:accumulate;font-family:Sans;-inkscape-font-specification:Sans" /></svg>