<?xml version="1.0" encoding="UTF-8" standalone="no"?>
<!-- Generator: IcoMoon.io -->

<svg xmlns:dc="http://purl.org/dc/elements/1.1/" xmlns:cc="http://creativecommons.org/ns#" xmlns:rdf="http://www.w3.org/1999/02/22-rdf-syntax-ns#" xmlns:svg="http://www.w3.org/2000/svg" xmlns="http://www.w3.org/2000/svg" xmlns:sodipodi="http://sodipodi.sourceforge.net/DTD/sodipodi-0.dtd" xmlns:inkscape="http://www.inkscape.org/namespaces/inkscape" version="1.1" id="Layer_1" x="0px" y="0px" width="64" height="64" viewBox="0 0 64 64" enable-background="new 0 0 16 16" xml:space="preserve" inkscape:version="0.48.2 r9819" sodipodi:docname="zoom-out.svg"><metadata id="metadata9"><rdf:RDF><cc:Work rdf:about=""><dc:format>image/svg+xml</dc:format><dc:type rdf:resource="http://purl.org/dc/dcmitype/StillImage" /><dc:title></dc:title></cc:Work></rdf:RDF></metadata><defs id="defs7" /><sodipodi:namedview pagecolor="#ffffff" bordercolor="#666666" borderopacity="1" objecttolerance="10" gridtolerance="10" guidetolerance="10" inkscape:pageopacity="0" inkscape:pageshadow="2" inkscape:window-width="736" inkscape:window-height="510" id="namedview5" showgrid="false" inkscape:zoom="5.5608766" inkscape:cx="32.722716" inkscape:cy="32.933981" inkscape:window-x="0" inkscape:window-y="0" inkscape:window-maximized="0" inkscape:current-layer="Layer_1" /> <path d="M 47,56 17,56 C 12.029,56 8,51.968 8,47 L 8,17 c 0,-4.971 4.029,-9 9,-9 l 30,0 c 4.971,0 9,4.029 9,9 l 0,30 c 0,4.968 -4.029,9 -9,9 z m 3,-39 c 0,-1.656 -1.341,-3 -3,-3 l -30,0 c -1.659,0 -3,1.344 -3,3 l 0,30 c 0,1.659 1.341,3 3,3 l 30,0 c 1.659,0 3,-1.341 3,-3 l 0,-30 z m -9,18 -18,0 c -1.659,0 -3,-1.344 -3,-3 0,-1.656 1.341,-3 3,-3 l 18,0 c 1.659,0 3,1.344 3,3 0,1.656 -1.341,3 -3,3 z" id="path3" inkscape:connector-curvature="0" /></svg>