<?xml version="1.0" encoding="UTF-8" standalone="no"?>
<!-- Generator: IcoMoon.io -->

<svg
   xmlns:dc="http://purl.org/dc/elements/1.1/"
   xmlns:cc="http://creativecommons.org/ns#"
   xmlns:rdf="http://www.w3.org/1999/02/22-rdf-syntax-ns#"
   xmlns:svg="http://www.w3.org/2000/svg"
   xmlns="http://www.w3.org/2000/svg"
   xmlns:sodipodi="http://sodipodi.sourceforge.net/DTD/sodipodi-0.dtd"
   xmlns:inkscape="http://www.inkscape.org/namespaces/inkscape"
   version="1.1"
   id="Layer_1"
   x="0px"
   y="0px"
   width="64"
   height="64"
   viewBox="0 0 64 64"
   enable-background="new 0 0 16 16"
   xml:space="preserve"
   inkscape:version="0.48.2 r9819"
   sodipodi:docname="camera.svg"
   style="fill:#000000"><metadata
   id="metadata9"><rdf:RDF><cc:Work
       rdf:about=""><dc:format>image/svg+xml</dc:format><dc:type
         rdf:resource="http://purl.org/dc/dcmitype/StillImage" /></cc:Work></rdf:RDF></metadata><defs
   id="defs7" /><sodipodi:namedview
   pagecolor="#ffffff"
   bordercolor="#666666"
   borderopacity="1"
   objecttolerance="10"
   gridtolerance="10"
   guidetolerance="10"
   inkscape:pageopacity="0"
   inkscape:pageshadow="2"
   inkscape:window-width="640"
   inkscape:window-height="480"
   id="namedview5"
   showgrid="false"
   inkscape:zoom="6.7604167"
   inkscape:cx="24"
   inkscape:cy="24"
   inkscape:window-x="0"
   inkscape:window-y="0"
   inkscape:window-maximized="0"
   inkscape:current-layer="Layer_1" /> <path
   d="m 53,17 -6,0 c -1.659,0 -3,-1.344 -3,-3 0,-1.656 -1.341,-3 -3,-3 l -18,0 c -1.659,0 -3,1.344 -3,3 0,1.656 -1.341,3 -3,3 l -6,0 c -1.659,0 -3,1.344 -3,3 l 0,30 c 0,1.659 1.341,3 3,3 l 42,0 c 1.659,0 3,-1.341 3,-3 l 0,-30 c 0,-1.656 -1.341,-3 -3,-3 z M 32,47 c -8.286,0 -15,-6.714 -15,-15 0,-8.283 6.714,-15 15,-15 8.286,0 15,6.717 15,15 0,8.286 -6.714,15 -15,15 z m 0,-24 c -4.971,0 -9,4.029 -9,9 0,4.968 4.029,9 9,9 4.971,0 9,-4.032 9,-9 0,-4.971 -4.029,-9 -9,-9 z"
   id="path3"
   inkscape:connector-curvature="0" /></svg>